<svg id="icon-arrow-down-16" xmlns="http://www.w3.org/2000/svg" xmlns:xlink="http://www.w3.org/1999/xlink" width="16" height="9.631" viewBox="0 0 16 9.631" aria-expanded="!showListFlag"><defs><clipPath id="clip-path"><path id="Path_157" data-name="Path 157" d="M9.378,8.622,2.313,15.743a.868.868,0,0,1-1.234,0l-.822-.83a.885.885,0,0,1,0-1.242L5.851,8,.253,2.33a.884.884,0,0,1,0-1.242L1.078.257a.868.868,0,0,1,1.234,0L9.378,7.378A.89.89,0,0,1,9.378,8.622Z" fill="#171717" opacity="0.5"></path></clipPath></defs><g id="icon_arrow_down_16" data-name="icon/arrow/down/16" transform="translate(16 0) rotate(90)" clip-path="url(#clip-path)"><g id="Page-1" transform="translate(0.437 0)"><g id="Multicolor-Heroes" transform="translate(0 0)"><g id="icon_arrow_right-" data-name="icon/arrow/right-"><g id="Group_81" data-name="Group 81"><path id="Shape" d="M8.539,7.381,1.364.227a.765.765,0,0,0-1.087,0,.753.753,0,0,0,0,1.077L6.969,7.975.227,14.7a.753.753,0,0,0,0,1.077.753.753,0,0,0,1.077,0L8.458,8.639a.769.769,0,0,0,.2-.363.75.75,0,0,0-.121-.9Z" fill="#171717"></path></g></g></g></g></g></svg>