<svg xmlns="http://www.w3.org/2000/svg" xmlns:xlink="http://www.w3.org/1999/xlink" width="21px" height="23px" viewBox="0 0 21 23" version="1.1">
    <!-- Generator: Sketch 56.3 (81716) - https://sketch.com -->
    <title>Search</title>
    <desc>Created with Sketch.</desc>
    <g id="Page-1" stroke="none" stroke-width="1" fill="none" fill-rule="evenodd">
        <g id="Letter" transform="translate(-306.000000, -134.000000)" fill="#000000">
            <g id="Search" transform="translate(305.000000, 134.000000)">
                <g id="Shape">
                    <path d="M21.31,21.4 L15.69,14.69 C18.136659,12.2230625 18.8630717,8.52839521 17.5324805,5.31880829 C16.2018893,2.10922137 13.0744455,0.0122386751 9.6,-1.09276139e-05 C5.92053801,-0.00584017922 2.64498612,2.32974634 1.45140637,5.81024084 C0.257826617,9.29073535 1.41067806,13.1449717 4.31935602,15.3984285 C7.22803398,17.6518852 11.2480686,17.8052684 14.32,15.78 L20,22.44 C20.132297,22.638566 20.3454116,22.7687016 20.582483,22.7956853 C20.8195543,22.822669 21.0564632,22.7437557 21.23,22.58 C21.5355516,22.2564665 21.5690873,21.7618141 21.31,21.4 Z M2.75,8.6 C2.75,4.81684946 5.81684946,1.75 9.6,1.75 C13.3831505,1.75 16.45,4.81684946 16.45,8.6 C16.45,12.3831505 13.3831505,15.45 9.6,15.45 C5.81684946,15.45 2.75,12.3831505 2.75,8.6 L2.75,8.6 Z" fill-rule="nonzero"/>
                </g>
            </g>
        </g>
    </g>
</svg>